<!-- Generator: Adobe Illustrator 17.1.0, SVG Export Plug-In  --><svg version="1.1"	 xmlns="http://www.w3.org/2000/svg" xmlns:xlink="http://www.w3.org/1999/xlink" xmlns:a="http://ns.adobe.com/AdobeSVGViewerExtensions/3.0/"	 x="0px" y="0px" width="203.392px" height="417px" viewBox="0 0 203.392 417" enable-background="new 0 0 203.392 417"	 xml:space="preserve"><defs></defs><path fill="#FFFFFF" stroke="#00B09A" stroke-width="2" stroke-miterlimit="10" d="M80.42,397.42c0-8.941-7.249-16.19-16.19-16.19	s-16.19,7.249-16.19,16.19"/><rect x="61.119" y="303" fill="none" stroke="#00B09A" stroke-width="2" stroke-miterlimit="10" width="8" height="13"/><rect x="61.119" y="354" fill="none" stroke="#00B09A" stroke-width="2" stroke-miterlimit="10" width="8" height="13"/><path fill="none" stroke="#00B09A" stroke-width="2" stroke-miterlimit="10" d="M87.119,413.687c0,1.277-1.035,2.313-2.313,2.313	H44.432c-1.277,0-2.313-1.035-2.313-2.313v-14.374c0-1.277,1.035-2.313,2.313-2.313h40.374c1.277,0,2.313,1.035,2.313,2.313V413.687	z"/><path fill="#FFFFFF" stroke="#00B09A" stroke-width="2" stroke-miterlimit="10" d="M78.119,383.687c0,1.277-1.035,2.313-2.313,2.313	H54.432c-1.277,0-2.313-1.035-2.313-2.313v-14.374c0-1.277,1.035-2.313,2.313-2.313h21.374c1.277,0,2.313,1.035,2.313,2.313V383.687	z"/><path fill="none" stroke="#00B09A" stroke-width="2" stroke-miterlimit="10" d="M78.119,350.245c0,2.074-1.681,3.755-3.755,3.755	H55.874c-2.074,0-3.755-1.681-3.755-3.755v-30.489c0-2.074,1.681-3.755,3.755-3.755h18.489c2.074,0,3.755,1.681,3.755,3.755V350.245	z"/><path fill="#FFFFFF" stroke="#00B09A" stroke-width="2" stroke-miterlimit="10" d="M54.119,380h-6.081	c-2.074,0-3.755-1.426-3.755-3.5l0,0c0-2.074,1.681-3.5,3.755-3.5h6.081V380z"/><path fill="#FFFFFF" stroke="#00B09A" stroke-width="2" stroke-miterlimit="10" d="M76.119,380h5.717c2.074,0,3.755-1.426,3.755-3.5	l0,0c0-2.074-1.681-3.5-3.755-3.5h-5.717V380z"/><circle fill="#FFFFFF" stroke="#00B09A" stroke-width="2" stroke-miterlimit="10" cx="64.937" cy="335.221" r="5.633"/><line fill="none" stroke="#00B09A" stroke-width="2" stroke-linecap="round" stroke-miterlimit="10" x1="50.119" y1="335" x2="57.119" y2="335"/><line fill="none" stroke="#00B09A" stroke-width="2" stroke-linecap="round" stroke-miterlimit="10" x1="72.119" y1="335" x2="80.119" y2="335"/><line fill="none" stroke="#00B09A" stroke-width="2" stroke-miterlimit="10" x1="57.119" y1="324" x2="61.119" y2="324"/><line fill="none" stroke="#00B09A" stroke-width="2" stroke-miterlimit="10" x1="69.119" y1="324" x2="72.119" y2="324"/><line fill="none" stroke="#00B09A" stroke-width="2" stroke-miterlimit="10" x1="57.119" y1="347" x2="61.119" y2="347"/><line fill="none" stroke="#00B09A" stroke-width="2" stroke-miterlimit="10" x1="69.119" y1="347" x2="72.119" y2="347"/><line fill="none" stroke="#00B09A" stroke-width="2" stroke-miterlimit="10" x1="59.119" y1="377" x2="63.119" y2="377"/><line fill="none" stroke="#00B09A" stroke-width="2" stroke-miterlimit="10" x1="67.119" y1="377" x2="71.119" y2="377"/><line fill="none" stroke="#00B09A" stroke-width="2" stroke-miterlimit="10" x1="42.119" y1="408" x2="89.119" y2="408"/><line fill="none" stroke="#00B09A" stroke-width="2" stroke-miterlimit="10" x1="44.283" y1="415.96" x2="51.793" y2="408.45"/><line fill="none" stroke="#00B09A" stroke-width="2" stroke-miterlimit="10" x1="53.671" y1="415.96" x2="61.181" y2="408.45"/><line fill="none" stroke="#00B09A" stroke-width="2" stroke-miterlimit="10" x1="63.059" y1="415.96" x2="70.57" y2="408.45"/><line fill="none" stroke="#00B09A" stroke-width="2" stroke-miterlimit="10" x1="72.447" y1="415.96" x2="79.958" y2="408.45"/><line fill="none" stroke="#00B09A" stroke-width="2" stroke-miterlimit="10" x1="81.836" y1="415.96" x2="86.53" y2="411.266"/><path fill="#FFFFFF" stroke="#00B09A" stroke-width="2" stroke-miterlimit="10" d="M153.649,397.42c0-8.941-7.249-16.19-16.19-16.19	c-8.941,0-16.19,7.249-16.19,16.19"/><rect x="134.119" y="303" fill="none" stroke="#00B09A" stroke-width="2" stroke-miterlimit="10" width="8" height="13"/><rect x="134.119" y="354" fill="none" stroke="#00B09A" stroke-width="2" stroke-miterlimit="10" width="8" height="13"/><path fill="none" stroke="#00B09A" stroke-width="2" stroke-miterlimit="10" d="M161.119,413.687c0,1.277-1.035,2.313-2.313,2.313	h-40.374c-1.277,0-2.313-1.035-2.313-2.313v-14.374c0-1.277,1.036-2.313,2.313-2.313h40.374c1.277,0,2.313,1.035,2.313,2.313	V413.687z"/><path fill="#FFFFFF" stroke="#00B09A" stroke-width="2" stroke-miterlimit="10" d="M151.119,383.687	c0,1.277-1.035,2.313-2.313,2.313h-21.374c-1.277,0-2.313-1.035-2.313-2.313v-14.374c0-1.277,1.036-2.313,2.313-2.313h21.374	c1.277,0,2.313,1.035,2.313,2.313V383.687z"/><path fill="none" stroke="#00B09A" stroke-width="2" stroke-miterlimit="10" d="M151.119,350.245c0,2.074-1.681,3.755-3.755,3.755	h-18.489c-2.074,0-3.755-1.681-3.755-3.755v-30.489c0-2.074,1.681-3.755,3.755-3.755h18.489c2.074,0,3.755,1.681,3.755,3.755	V350.245z"/><path fill="#FFFFFF" stroke="#00B09A" stroke-width="2" stroke-miterlimit="10" d="M127.119,380h-5.853	c-2.074,0-3.755-1.426-3.755-3.5l0,0c0-2.074,1.681-3.5,3.755-3.5h5.853V380z"/><path fill="#FFFFFF" stroke="#00B09A" stroke-width="2" stroke-miterlimit="10" d="M149.119,380h5.945	c2.074,0,3.755-1.426,3.755-3.5l0,0c0-2.074-1.681-3.5-3.755-3.5h-5.945V380z"/><circle fill="#FFFFFF" stroke="#00B09A" stroke-width="2" stroke-miterlimit="10" cx="138.165" cy="335.221" r="5.633"/><line fill="none" stroke="#00B09A" stroke-width="2" stroke-linecap="round" stroke-miterlimit="10" x1="123.119" y1="335" x2="131.119" y2="335"/><line fill="none" stroke="#00B09A" stroke-width="2" stroke-linecap="round" stroke-miterlimit="10" x1="146.119" y1="335" x2="153.119" y2="335"/><line fill="none" stroke="#00B09A" stroke-width="2" stroke-miterlimit="10" x1="131.119" y1="324" x2="134.119" y2="324"/><line fill="none" stroke="#00B09A" stroke-width="2" stroke-miterlimit="10" x1="142.119" y1="324" x2="146.119" y2="324"/><line fill="none" stroke="#00B09A" stroke-width="2" stroke-miterlimit="10" x1="131.119" y1="347" x2="134.119" y2="347"/><line fill="none" stroke="#00B09A" stroke-width="2" stroke-miterlimit="10" x1="142.119" y1="347" x2="146.119" y2="347"/><line fill="none" stroke="#00B09A" stroke-width="2" stroke-miterlimit="10" x1="133.119" y1="377" x2="136.119" y2="377"/><line fill="none" stroke="#00B09A" stroke-width="2" stroke-miterlimit="10" x1="140.119" y1="377" x2="144.119" y2="377"/><line fill="none" stroke="#00B09A" stroke-width="2" stroke-miterlimit="10" x1="116.119" y1="408" x2="163.119" y2="408"/><line fill="none" stroke="#00B09A" stroke-width="2" stroke-miterlimit="10" x1="117.511" y1="415.96" x2="125.022" y2="408.45"/><line fill="none" stroke="#00B09A" stroke-width="2" stroke-miterlimit="10" x1="126.899" y1="415.96" x2="134.41" y2="408.45"/><line fill="none" stroke="#00B09A" stroke-width="2" stroke-miterlimit="10" x1="136.287" y1="415.96" x2="143.798" y2="408.45"/><line fill="none" stroke="#00B09A" stroke-width="2" stroke-miterlimit="10" x1="145.676" y1="415.96" x2="153.186" y2="408.45"/><line fill="none" stroke="#00B09A" stroke-width="2" stroke-miterlimit="10" x1="155.064" y1="415.96" x2="159.758" y2="411.266"/><g>	<path fill="#FFFFFF" stroke="#00B09A" stroke-width="2" stroke-miterlimit="10" d="M187.297,280.954v-8.266l-8.226,0.033		c0,0-0.008,11.743-0.008,11.877c0,2.741,0.016,4.664,2.745,4.969c1.049,0.118,1.732,0.351,1.732,0.351		c4.77,1.353,9.246,6.409,9.246,11.621c0,6.281-6.062,10.978-12.351,10.978c-6.286,0-11.092-5.357-11.092-11.638v-0.006		c0-4.231-3.428-7.659-7.66-7.659c-0.289,0-0.618,0.074-0.817,0.163c0,0-3,6.985,0.041,15.003		c3.042,8.018,10.444,13.743,19.528,13.743c11.739,0,21.956-8.845,21.956-20.584C202.392,292.413,195.362,283.973,187.297,280.954z"		/>	<path fill="none" stroke="#00B09A" stroke-width="2" stroke-linecap="round" stroke-linejoin="round" stroke-miterlimit="10" d="		M181.808,289.566l-21.352,24.353c-0.746,0.858-2.047,0.948-2.904,0.201l0,0c-0.858-0.746-0.948-2.047-0.201-2.904l2.479-2.848"/>	<path fill="none" stroke="#00B09A" stroke-width="2" stroke-linecap="round" stroke-linejoin="round" stroke-miterlimit="10" d="		M185.48,282.03"/>			<line fill="none" stroke="#00B09A" stroke-width="2" stroke-linecap="round" stroke-linejoin="round" stroke-miterlimit="10" x1="169.146" y1="297.405" x2="178.939" y2="286.411"/>	<path fill="none" stroke="#00B09A" stroke-width="2" stroke-miterlimit="10" d="M173.579,316.148		c-0.475-0.245-0.938-0.513-1.385-0.802"/>	<path fill="none" stroke="#00B09A" stroke-width="2" stroke-miterlimit="10" d="M187.297,316.776		c-1.907,0.772-3.991,1.197-6.175,1.197"/>	<path fill="none" stroke="#00B09A" stroke-width="2" stroke-miterlimit="10" d="M196.093,294.638		c0.961,2.09,1.496,4.417,1.496,6.868c0,5.2-2.411,9.838-6.175,12.855"/></g><path fill="#FFFFFF" stroke="#00B09A" stroke-width="2" stroke-miterlimit="10" d="M195.119,238.367	c0,3.111-2.522,5.633-5.633,5.633h-11.734c-3.111,0-5.633-2.522-5.633-5.633v-11.734c0-3.111,2.522-5.633,5.633-5.633h11.734	c3.111,0,5.633,2.522,5.633,5.633V238.367z"/><line fill="none" stroke="#00B09A" stroke-width="2" stroke-linecap="round" stroke-miterlimit="10" x1="170.119" y1="232" x2="196.119" y2="232"/><g>	<circle fill="#00B09A" cx="179.473" cy="226.318" r="1.878"/>	<circle fill="#00B09A" cx="179.473" cy="226.318" r="1.878"/>	<circle fill="#00B09A" cx="179.473" cy="226.318" r="1.878"/></g><g>	<circle fill="#00B09A" cx="179.473" cy="237.584" r="1.878"/>	<circle fill="#00B09A" cx="179.473" cy="237.584" r="1.878"/>	<circle fill="#00B09A" cx="179.473" cy="237.584" r="1.878"/></g><g>	<circle fill="#00B09A" cx="186.984" cy="226.318" r="1.878"/>	<circle fill="#00B09A" cx="186.984" cy="226.318" r="1.878"/>	<circle fill="#00B09A" cx="186.984" cy="226.318" r="1.878"/></g><g>	<circle fill="#00B09A" cx="186.984" cy="237.584" r="1.878"/>	<circle fill="#00B09A" cx="186.984" cy="237.584" r="1.878"/>	<circle fill="#00B09A" cx="186.984" cy="237.584" r="1.878"/></g><path fill="none" stroke="#00B09A" stroke-width="2" stroke-miterlimit="10" d="M42.119,226v-61.645c0-5.185,4.02-9.355,9.205-9.355	h101.393c5.185,0,10.402,4.17,10.402,9.355V226"/><path fill="none" stroke="#00B09A" stroke-width="2" stroke-miterlimit="10" d="M48.119,189v-19.012	c0-5.185,3.653-8.988,8.838-8.988h32.162"/><line fill="none" stroke="#00B09A" stroke-width="2" stroke-miterlimit="10" x1="48.119" y1="193" x2="48.119" y2="200"/><line fill="none" stroke="#00B09A" stroke-width="2" stroke-miterlimit="10" x1="48.119" y1="211" x2="48.119" y2="215"/><line fill="none" stroke="#00B09A" stroke-width="2" stroke-miterlimit="10" x1="93.119" y1="161" x2="101.119" y2="161"/><line fill="none" stroke="#00B09A" stroke-width="2" stroke-miterlimit="10" x1="114.119" y1="161" x2="118.119" y2="161"/><path fill="none" stroke="#00B09A" stroke-width="2" stroke-miterlimit="10" d="M83.119,175.755c0-2.074-1.681-3.755-3.755-3.755	H62.874c-2.074,0-3.755,1.681-3.755,3.755v33.489c0,2.074,1.681,3.755,3.755,3.755h16.489c2.074,0,3.755-1.681,3.755-3.755V175.755z	"/><rect x="67.119" y="179" fill="none" stroke="#00B09A" stroke-width="2" stroke-miterlimit="10" width="9" height="27"/><line fill="none" stroke="#00B09A" stroke-width="2" stroke-miterlimit="10" x1="67.119" y1="193" x2="74.119" y2="193"/><path fill="none" stroke="#00B09A" stroke-width="2" stroke-miterlimit="10" d="M94.51,200.031c0-15.555,12.61-28.165,28.165-28.165	s28.165,12.61,28.165,28.165"/><path fill="none" stroke="#00B09A" stroke-width="2" stroke-miterlimit="10" d="M102.02,200.031	c0-11.407,9.247-20.654,20.654-20.654s20.654,9.247,20.654,20.654"/><path fill="none" stroke="#00B09A" stroke-width="2" stroke-miterlimit="10" d="M151.119,198v11.419	c0,2.074-1.961,3.581-4.035,3.581H98.265c-2.074,0-3.146-1.507-3.146-3.581V198"/><path fill="none" stroke="#00B09A" stroke-width="2" stroke-miterlimit="10" d="M144.119,198v3.908c0,2.074-2.471,4.092-4.546,4.092	h-33.798c-2.074,0-3.657-2.018-3.657-4.092V198"/><line fill="none" stroke="#00B09A" stroke-width="2" stroke-miterlimit="10" x1="123.119" y1="179" x2="123.119" y2="187"/><line fill="none" stroke="#00B09A" stroke-width="2" stroke-miterlimit="10" x1="102.119" y1="200" x2="110.119" y2="200"/><line fill="none" stroke="#00B09A" stroke-width="2" stroke-miterlimit="10" x1="136.119" y1="200" x2="144.119" y2="200"/><line fill="none" stroke="#00B09A" stroke-width="2" stroke-miterlimit="10" x1="137.696" y1="185.01" x2="132.063" y2="190.642"/><path fill="#FFFFFF" stroke="#00B09A" stroke-width="2" stroke-miterlimit="10" d="M167.119,229.184	c0,1.555-1.261,2.816-2.816,2.816H41.935c-1.555,0-2.816-1.261-2.816-2.816v-0.367c0-1.555,1.261-2.816,2.816-2.816h122.367	c1.555,0,2.816,1.261,2.816,2.816V229.184z"/><g>	<g>					<line fill="none" stroke="#00B09A" stroke-width="2" stroke-miterlimit="10" x1="120.797" y1="203.786" x2="114.617" y2="189.88"/>		<g>			<path fill="#00B09A" d="M114.767,190.219c-0.488,1.269-2.039,2.46-3.229,3.03c1.083-1.924,1.798-4.116,1.748-6.362				c1.599,1.557,3.761,2.388,5.893,2.965C117.843,190.322,116.137,190.703,114.767,190.219z"/>		</g>	</g></g><circle fill="#FFFFFF" stroke="#00B09A" stroke-width="2" stroke-miterlimit="10" cx="122.674" cy="209.419" r="5.633"/><path fill="none" stroke="#00B09A" stroke-width="2" stroke-miterlimit="10" d="M159.545,231.951l-12.461,49.056	c-0.822,1.878-1.878,3.993-5.633,3.993H62.59c-3.755,0-4.812-2.107-5.633-3.993L45.692,232.07"/><path fill="none" stroke="#00B09A" stroke-width="2" stroke-miterlimit="10" d="M145.676,242.63l-5.802,31.223	c-0.535,1.629-1.577,3.147-4.732,3.147H68.899c-3.154,0-3.962-1.284-4.732-3.147l-6.741-31.226"/><path fill="none" stroke="#00B09A" stroke-width="2" stroke-miterlimit="10" d="M127.119,283v12.791	c0,2.074-1.901,4.209-3.975,4.209H79.958c-2.074,0-3.839-2.135-3.839-4.209V283"/><path fill="none" stroke="#00B09A" stroke-width="2" stroke-miterlimit="10" d="M57.426,242.986c0-2.074,1.681-3.986,3.755-3.986	h80.739c2.074,0,3.755,1.797,3.755,3.871"/><line fill="none" stroke="#00B09A" stroke-width="2" stroke-miterlimit="10" x1="59.119" y1="247" x2="144.119" y2="247"/><line fill="none" stroke="#00B09A" stroke-width="2" stroke-miterlimit="10" x1="61.119" y1="255" x2="142.119" y2="255"/><line fill="none" stroke="#00B09A" stroke-width="2" stroke-miterlimit="10" x1="63.119" y1="262" x2="142.119" y2="262"/><line fill="none" stroke="#00B09A" stroke-width="2" stroke-miterlimit="10" x1="63.119" y1="270" x2="140.119" y2="270"/><line fill="none" stroke="#00B09A" stroke-width="2" stroke-miterlimit="10" x1="102.119" y1="239" x2="102.119" y2="277"/><path fill="none" stroke="#00B09A" stroke-width="2" stroke-miterlimit="10" d="M70.119,287.504c0-1.383-1.121-2.504-2.504-2.504	h-5.993c-1.383,0-2.504,1.121-2.504,2.504v13.993c0,1.383,1.121,2.504,2.504,2.504h5.993c1.383,0,2.504-1.121,2.504-2.504V287.504z"	/><path fill="none" stroke="#00B09A" stroke-width="2" stroke-miterlimit="10" d="M144.119,287.504c0-1.383-1.121-2.504-2.504-2.504	h-5.993c-1.383,0-2.504,1.121-2.504,2.504v13.993c0,1.383,1.121,2.504,2.504,2.504h5.993c1.383,0,2.504-1.121,2.504-2.504V287.504z"	/><line fill="none" stroke="#00B09A" stroke-width="2" stroke-miterlimit="10" x1="129.119" y1="292" x2="133.119" y2="292"/><line fill="none" stroke="#00B09A" stroke-width="2" stroke-miterlimit="10" x1="74.119" y1="292" x2="71.119" y2="292"/><path fill="none" stroke="#00B09A" stroke-width="2" stroke-miterlimit="10" d="M57.119,296h-1.57c-2.074,0-3.755-1.926-3.755-4l0,0	c0-2.074,1.681-4,3.755-4h1.57"/><path fill="none" stroke="#00B09A" stroke-width="2" stroke-miterlimit="10" d="M146.119,296h1.435c2.074,0,3.755-1.926,3.755-4l0,0	c0-2.074-1.681-4-3.755-4h-1.435"/><line fill="none" stroke="#00B09A" stroke-width="2" stroke-miterlimit="10" x1="65.119" y1="286" x2="65.119" y2="303"/><line fill="none" stroke="#00B09A" stroke-width="2" stroke-miterlimit="10" x1="138.119" y1="286" x2="138.119" y2="303"/><g>	<g>		<line fill="none" stroke="#00B09A" stroke-width="2" stroke-miterlimit="10" x1="74.119" y1="292" x2="75.119" y2="292"/>					<line fill="none" stroke="#00B09A" stroke-width="2" stroke-miterlimit="10" stroke-dasharray="2,2" x1="77.119" y1="292" x2="125.119" y2="292"/>		<line fill="none" stroke="#00B09A" stroke-width="2" stroke-miterlimit="10" x1="126.119" y1="292" x2="127.119" y2="292"/>	</g></g><rect x="163.119" y="178" fill="none" stroke="#00B09A" stroke-width="2" stroke-miterlimit="10" width="7" height="7"/><path fill="none" stroke="#00B09A" stroke-width="2" stroke-miterlimit="10" d="M196.119,195.245c0,2.074-1.681,3.755-3.755,3.755	h-18.489c-2.074,0-3.755-1.681-3.755-3.755v-30.489c0-2.074,1.681-3.755,3.755-3.755h18.489c2.074,0,3.755,1.681,3.755,3.755	V195.245z"/><line fill="none" stroke="#00B09A" stroke-width="2" stroke-miterlimit="10" x1="183.119" y1="161" x2="183.119" y2="198"/><line fill="none" stroke="#00B09A" stroke-width="2" stroke-miterlimit="10" stroke-dasharray="2,2" x1="178.119" y1="166" x2="178.119" y2="198"/><line fill="none" stroke="#00B09A" stroke-width="2" stroke-miterlimit="10" stroke-dasharray="2,2" x1="189.119" y1="166" x2="189.119" y2="198"/><path fill="none" stroke="#00B09A" stroke-width="2" stroke-miterlimit="10" d="M195.119,172h3.131c2.074,0,3.869,1.547,3.869,3.621	v11.266c0,2.074-1.795,4.113-3.869,4.113h-3.131"/><polygon fill="none" stroke="#00B09A" stroke-width="2" stroke-miterlimit="10" points="202.005,181 202.005,181 198.25,181 	198.25,181 198.25,181 198.25,181 202.005,181 202.005,181 "/><rect x="178.119" y="198" fill="none" stroke="#00B09A" stroke-width="2" stroke-miterlimit="10" width="11" height="23"/><line fill="none" stroke="#00B09A" stroke-width="2" stroke-miterlimit="10" x1="178.119" y1="206" x2="189.119" y2="206"/><line fill="none" stroke="#00B09A" stroke-width="2" stroke-miterlimit="10" x1="178.119" y1="213" x2="189.119" y2="213"/><line fill="none" stroke="#00B09A" stroke-width="2" stroke-miterlimit="10" x1="178.119" y1="221" x2="189.119" y2="221"/><rect x="178.119" y="243" fill="none" stroke="#00B09A" stroke-width="2" stroke-miterlimit="10" width="11" height="25"/><path fill="none" stroke="#00B09A" stroke-width="2" stroke-miterlimit="10" d="M86.119,153v-3.666c0-3.111,1.994-5.334,5.105-5.334	h22.532c3.111,0,5.363,2.223,5.363,5.334V153"/><line fill="none" stroke="#00B09A" stroke-width="2" stroke-miterlimit="10" x1="91.119" y1="149" x2="95.119" y2="149"/><line fill="none" stroke="#00B09A" stroke-width="2" stroke-miterlimit="10" x1="110.119" y1="149" x2="114.119" y2="149"/><line fill="none" stroke="#00B09A" stroke-width="2" stroke-miterlimit="10" x1="101.119" y1="149" x2="104.119" y2="149"/><rect x="99.119" y="136" fill="none" stroke="#00B09A" stroke-width="2" stroke-miterlimit="10" width="7" height="8"/><path fill="#FFFFFF" stroke="#00B09A" stroke-width="2" stroke-miterlimit="10" d="M195.119,270.245	c0,2.074-1.681,3.755-3.755,3.755h-15.489c-2.074,0-3.755-1.681-3.755-3.755v-0.489c0-2.074,1.681-3.755,3.755-3.755h15.489	c2.074,0,3.755,1.681,3.755,3.755V270.245z"/><line fill="none" stroke="#00B09A" stroke-width="2" stroke-miterlimit="10" x1="178.119" y1="258" x2="191.119" y2="258"/><line fill="none" stroke="#00B09A" stroke-width="2" stroke-miterlimit="10" x1="178.119" y1="251" x2="191.119" y2="251"/><g>	<path fill="#FFFFFF" stroke="#00B09A" stroke-width="2" stroke-miterlimit="10" d="M16.095,280.954v-8.266l8.226,0.033		c0,0,0.008,11.743,0.008,11.877c0,2.741-0.016,4.664-2.745,4.969c-1.049,0.118-1.732,0.351-1.732,0.351		c-4.77,1.353-9.246,6.409-9.246,11.621c0,6.281,6.062,10.978,12.351,10.978c6.286,0,11.092-5.357,11.092-11.638v-0.006		c0-4.231,3.428-7.659,7.66-7.659c0.289,0,0.618,0.074,0.817,0.163c0,0,3,6.985-0.041,15.003		c-3.042,8.018-10.444,13.743-19.528,13.743C11.218,322.122,1,313.278,1,301.538C1,292.413,8.03,283.973,16.095,280.954z"/>	<path fill="none" stroke="#00B09A" stroke-width="2" stroke-linecap="round" stroke-linejoin="round" stroke-miterlimit="10" d="		M22.016,289.881l20.92,24.037c0.746,0.858,2.047,0.948,2.904,0.201l0,0c0.858-0.746,0.948-2.047,0.201-2.904l-2.479-2.848"/>	<path fill="none" stroke="#00B09A" stroke-width="2" stroke-linecap="round" stroke-linejoin="round" stroke-miterlimit="10" d="		M17.912,282.03"/>			<line fill="none" stroke="#00B09A" stroke-width="2" stroke-linecap="round" stroke-linejoin="round" stroke-miterlimit="10" x1="34.282" y1="297.551" x2="24.453" y2="286.411"/>	<path fill="none" stroke="#00B09A" stroke-width="2" stroke-miterlimit="10" d="M29.814,316.148		c0.475-0.245,0.937-0.513,1.385-0.802"/>	<path fill="none" stroke="#00B09A" stroke-width="2" stroke-miterlimit="10" d="M16.095,316.776		c1.907,0.772,3.991,1.197,6.175,1.197"/>	<path fill="none" stroke="#00B09A" stroke-width="2" stroke-miterlimit="10" d="M7.299,294.638		c-0.961,2.09-1.496,4.417-1.496,6.868c0,5.2,2.41,9.838,6.175,12.855"/></g><path fill="#FFFFFF" stroke="#00B09A" stroke-width="2" stroke-miterlimit="10" d="M33.119,226.633c0-3.111-2.522-5.633-5.633-5.633	H15.752c-3.111,0-5.633,2.522-5.633,5.633v11.734c0,3.111,2.522,5.633,5.633,5.633h11.734c3.111,0,5.633-2.522,5.633-5.633V226.633z	"/><line fill="none" stroke="#00B09A" stroke-width="2" stroke-linecap="round" stroke-miterlimit="10" x1="35.119" y1="232" x2="9.119" y2="232"/><g>	<circle fill="#00B09A" cx="25.797" cy="226.318" r="1.878"/>	<circle fill="#00B09A" cx="25.797" cy="226.318" r="1.878"/>	<circle fill="#00B09A" cx="25.797" cy="226.318" r="1.878"/></g><g>	<circle fill="#00B09A" cx="25.797" cy="237.584" r="1.878"/>	<circle fill="#00B09A" cx="25.797" cy="237.584" r="1.878"/>	<circle fill="#00B09A" cx="25.797" cy="237.584" r="1.878"/></g><g>	<circle fill="#00B09A" cx="18.286" cy="226.318" r="1.878"/>	<circle fill="#00B09A" cx="18.286" cy="226.318" r="1.878"/>	<circle fill="#00B09A" cx="18.286" cy="226.318" r="1.878"/></g><g>	<circle fill="#00B09A" cx="18.286" cy="237.584" r="1.878"/>	<circle fill="#00B09A" cx="18.286" cy="237.584" r="1.878"/>	<circle fill="#00B09A" cx="18.286" cy="237.584" r="1.878"/></g><rect x="35.119" y="178" fill="none" stroke="#00B09A" stroke-width="2" stroke-miterlimit="10" width="7" height="7"/><path fill="none" stroke="#00B09A" stroke-width="2" stroke-miterlimit="10" d="M35.119,164.755c0-2.074-1.681-3.755-3.755-3.755	H12.874c-2.074,0-3.755,1.681-3.755,3.755v30.489c0,2.074,1.681,3.755,3.755,3.755h18.489c2.074,0,3.755-1.681,3.755-3.755V164.755z	"/><line fill="none" stroke="#00B09A" stroke-width="2" stroke-miterlimit="10" x1="22.119" y1="161" x2="22.119" y2="198"/><line fill="none" stroke="#00B09A" stroke-width="2" stroke-miterlimit="10" stroke-dasharray="2,2" x1="27.119" y1="166" x2="27.119" y2="198"/><line fill="none" stroke="#00B09A" stroke-width="2" stroke-miterlimit="10" stroke-dasharray="2,2" x1="16.119" y1="166" x2="16.119" y2="198"/><path fill="none" stroke="#00B09A" stroke-width="2" stroke-miterlimit="10" d="M10.119,172H7.02c-2.074,0-3.901,1.547-3.901,3.621	v11.266c0,2.074,1.827,4.113,3.901,4.113h3.099"/><polygon fill="none" stroke="#00B09A" stroke-width="2" stroke-miterlimit="10" points="3.265,181 3.265,181 7.02,181 7.02,181 	7.02,181 7.02,181 3.265,181 3.265,181 "/><rect x="16.119" y="198" fill="none" stroke="#00B09A" stroke-width="2" stroke-miterlimit="10" width="11" height="23"/><line fill="none" stroke="#00B09A" stroke-width="2" stroke-miterlimit="10" x1="27.119" y1="206" x2="16.119" y2="206"/><line fill="none" stroke="#00B09A" stroke-width="2" stroke-miterlimit="10" x1="27.119" y1="213" x2="16.119" y2="213"/><line fill="none" stroke="#00B09A" stroke-width="2" stroke-miterlimit="10" x1="27.119" y1="221" x2="16.119" y2="221"/><rect x="16.119" y="243" fill="none" stroke="#00B09A" stroke-width="2" stroke-miterlimit="10" width="11" height="25"/><path fill="#FFFFFF" stroke="#00B09A" stroke-width="2" stroke-miterlimit="10" d="M33.119,269.755c0-2.074-1.681-3.755-3.755-3.755	H13.874c-2.074,0-3.755,1.681-3.755,3.755v0.489c0,2.074,1.681,3.755,3.755,3.755h15.489c2.074,0,3.755-1.681,3.755-3.755V269.755z"	/><line fill="none" stroke="#00B09A" stroke-width="2" stroke-miterlimit="10" x1="27.119" y1="258" x2="14.119" y2="258"/><line fill="none" stroke="#00B09A" stroke-width="2" stroke-miterlimit="10" x1="27.119" y1="251" x2="14.119" y2="251"/><path fill="none" stroke="#00B09A" stroke-width="2" stroke-miterlimit="10" d="M144.119,110V70.086	c0-5.876-1.412-17.096-3.662-22.147c-1.916-4.303-17.78-9.77-20.988-13.142c-7.51-7.894-26.286-8.083-33.838,0	c-3.081,3.298-19.081,8.977-20.944,13.143c-2.259,5.05-3.568,16.27-3.568,22.145V110"/><path fill="none" stroke="#00B09A" stroke-width="2" stroke-linecap="round" stroke-linejoin="round" stroke-miterlimit="10" d="	M99.119,27v-6.818c0-1.135,1.959-0.182,3.094-0.182h2.056c1.135,0,1.85-0.954,1.85,0.182V27"/><circle fill="none" stroke="#00B09A" stroke-width="2" stroke-linecap="round" stroke-linejoin="round" stroke-miterlimit="10" cx="102.49" cy="5.694" r="4.694"/><line fill="none" stroke="#00B09A" stroke-width="2" stroke-linecap="round" stroke-linejoin="round" stroke-miterlimit="10" x1="102.119" y1="10" x2="102.119" y2="20"/><polyline fill="none" stroke="#00B09A" stroke-width="2" stroke-miterlimit="10" points="61.119,65 102.49,65 144.119,65 "/><line fill="none" stroke="#00B09A" stroke-width="2" stroke-miterlimit="10" stroke-dasharray="2,2" x1="61.119" y1="70" x2="144.119" y2="70"/><path fill="none" stroke="#00B09A" stroke-width="2" stroke-miterlimit="10" d="M78.083,130.413	c-4.141-3.032-8.017-7.076-11.268-9.243c-3.493-2.329-5.633-13.144-5.633-13.144"/><polyline fill="none" stroke="#00B09A" stroke-width="2" stroke-miterlimit="10" points="59.119,108 78.119,108 78.119,132 "/><path fill="none" stroke="#00B09A" stroke-width="2" stroke-miterlimit="10" d="M126.899,130.411	c4.14-3.032,8.016-7.074,11.266-9.241c3.493-2.329,5.633-13.144,5.633-13.144"/><polyline fill="none" stroke="#00B09A" stroke-width="2" stroke-miterlimit="10" points="146.119,108 127.119,108 127.119,132 "/><path fill="#FFFFFF" stroke="#00B09A" stroke-width="2" stroke-miterlimit="10" d="M87.469,53.409c0,2.074,1.681,3.591,3.755,3.591	h22.532c2.074,0,3.755-1.517,3.755-3.591l2.893-22.339c-5.374-2.569-11.387-4.07-17.72-4.07h-0.29	c-6.363,0-12.409,1.514-17.813,4.105L87.469,53.409z"/><path fill="none" stroke="#00B09A" stroke-width="2" stroke-miterlimit="10" d="M119.396,38.443	C114.282,36.166,108.624,35,102.683,35h-0.29c-5.969,0-11.66,1.228-16.803,3.525"/><path fill="none" stroke="#00B09A" stroke-width="2" stroke-miterlimit="10" d="M119.396,45.698	C114.282,43.421,108.624,42,102.683,42h-0.29c-5.969,0-11.659,1.355-16.802,3.652"/><path fill="none" stroke="#00B09A" stroke-width="2" stroke-miterlimit="10" d="M118.362,52.92	c-10.05-4.136-21.683-4.129-31.726,0.025"/><line fill="none" stroke="#00B09A" stroke-width="2" stroke-miterlimit="10" x1="80.119" y1="108" x2="129.119" y2="108"/><path fill="none" stroke="#00B09A" stroke-width="2" stroke-miterlimit="10" d="M121.119,114v18.435	c0,2.074-1.534,3.565-3.608,3.565H87.469c-2.074,0-3.35-1.491-3.35-3.565V114"/><path fill="none" stroke="#00B09A" stroke-width="2" stroke-miterlimit="10" d="M121.266,113.659c0,1.037-13.591,3.755-18.776,3.755	s-18.776-2.718-18.776-3.755"/><line fill="none" stroke="#00B09A" stroke-width="2" stroke-miterlimit="10" x1="102.119" y1="117" x2="102.119" y2="136"/><line fill="none" stroke="#00B09A" stroke-width="2" stroke-miterlimit="10" stroke-dasharray="2,2" x1="97.119" y1="117" x2="97.119" y2="136"/><line fill="none" stroke="#00B09A" stroke-width="2" stroke-miterlimit="10" stroke-dasharray="2,2" x1="108.119" y1="117" x2="108.119" y2="136"/><line fill="none" stroke="#00B09A" stroke-width="2" stroke-miterlimit="10" x1="78.119" y1="123" x2="84.119" y2="123"/><line fill="none" stroke="#00B09A" stroke-width="2" stroke-miterlimit="10" x1="121.119" y1="123" x2="127.119" y2="123"/><path fill="none" stroke="#00B09A" stroke-width="2" stroke-miterlimit="10" d="M63.119,99h-3.815c-2.074,0-3.185-2.044-3.185-4.118	V83.617c0-2.074,1.111-3.617,3.185-3.617h3.815"/><path fill="none" stroke="#00B09A" stroke-width="2" stroke-miterlimit="10" d="M53.773,94.882c-2.074,0-3.654-1.681-3.654-3.755	v-3.755c0-2.074,1.631-3.755,3.704-3.755"/><path fill="none" stroke="#00B09A" stroke-width="2" stroke-miterlimit="10" d="M142.119,99h3.557c2.074,0,3.443-2.044,3.443-4.118	V83.617c0-2.074-1.369-3.617-3.443-3.617h-3.557"/><path fill="none" stroke="#00B09A" stroke-width="2" stroke-miterlimit="10" d="M151.336,94.882c2.074,0,3.783-1.681,3.783-3.755	v-3.755c0-2.074-1.695-3.755-3.769-3.755"/><path fill="none" stroke="#00B09A" stroke-width="2" stroke-miterlimit="10" d="M137.119,93.245c0,2.074-1.681,3.755-3.755,3.755	H72.874c-2.074,0-3.755-1.681-3.755-3.755v-7.489c0-2.074,1.681-3.755,3.755-3.755h60.489c2.074,0,3.755,1.681,3.755,3.755V93.245z"	/><polyline fill="none" stroke="#00B09A" stroke-width="2" stroke-miterlimit="10" points="69.119,89 91.224,89 94.04,86.184 	96.857,89 104.367,89 107.184,91.816 110,89 136.119,89 "/><line fill="none" stroke="#00B09A" stroke-width="2" stroke-miterlimit="10" stroke-dasharray="2,2" x1="72.119" y1="108" x2="72.119" y2="127"/><line fill="none" stroke="#00B09A" stroke-width="2" stroke-miterlimit="10" stroke-dasharray="2,2" x1="133.119" y1="108" x2="133.119" y2="127"/></svg>